<mxfile host="app.diagrams.net" agent="Mozilla/5.0 (Windows NT 10.0; Win64; x64; rv:128.0) Gecko/20100101 Firefox/128.0" version="26.2.13">
  <diagram name="第 1 页" id="Th7UaGhO0xqT4Yv7z99O">
    <mxGraphModel dx="786" dy="1118" grid="1" gridSize="10" guides="1" tooltips="1" connect="1" arrows="1" fold="1" page="1" pageScale="1" pageWidth="827" pageHeight="1169" math="0" shadow="0">
      <root>
        <mxCell id="0" />
        <mxCell id="1" parent="0" />
        <mxCell id="2" value="图像采集模块" style="whiteSpace=wrap;strokeWidth=2;" parent="1" vertex="1">
          <mxGeometry x="143" y="8" width="156" height="54" as="geometry" />
        </mxCell>
        <mxCell id="3" value="实时采集图像帧" style="whiteSpace=wrap;strokeWidth=2;" parent="1" vertex="1">
          <mxGeometry x="135" y="137" width="172" height="54" as="geometry" />
        </mxCell>
        <mxCell id="4" value="人脸检测模块" style="whiteSpace=wrap;strokeWidth=2;" parent="1" vertex="1">
          <mxGeometry x="143" y="241" width="156" height="54" as="geometry" />
        </mxCell>
        <mxCell id="5" value="人脸区域定位" style="whiteSpace=wrap;strokeWidth=2;" parent="1" vertex="1">
          <mxGeometry x="143" y="370" width="156" height="54" as="geometry" />
        </mxCell>
        <mxCell id="6" value="特征提取与比对模块" style="whiteSpace=wrap;strokeWidth=2;" parent="1" vertex="1">
          <mxGeometry x="119" y="474" width="204" height="54" as="geometry" />
        </mxCell>
        <mxCell id="7" value="检测到的人脸区域" style="whiteSpace=wrap;strokeWidth=2;" parent="1" vertex="1">
          <mxGeometry x="127" y="603" width="188" height="54" as="geometry" />
        </mxCell>
        <mxCell id="8" value="差异度计算" style="whiteSpace=wrap;strokeWidth=2;" parent="1" vertex="1">
          <mxGeometry x="151" y="750" width="140" height="54" as="geometry" />
        </mxCell>
        <mxCell id="9" value="身份识别模块" style="whiteSpace=wrap;strokeWidth=2;" parent="1" vertex="1">
          <mxGeometry x="143" y="854" width="156" height="54" as="geometry" />
        </mxCell>
        <mxCell id="10" value="判断当前人脸是否为已注册人员" style="whiteSpace=wrap;strokeWidth=2;" parent="1" vertex="1">
          <mxGeometry x="91" y="983" width="260" height="78" as="geometry" />
        </mxCell>
        <mxCell id="11" value="判断为已注册人脸" style="whiteSpace=wrap;strokeWidth=2;" parent="1" vertex="1">
          <mxGeometry x="8" y="1136" width="188" height="54" as="geometry" />
        </mxCell>
        <mxCell id="12" value="判断为未注册人脸" style="whiteSpace=wrap;strokeWidth=2;" parent="1" vertex="1">
          <mxGeometry x="246" y="1136" width="188" height="54" as="geometry" />
        </mxCell>
        <mxCell id="13" value="结果输出模块" style="whiteSpace=wrap;strokeWidth=2;" parent="1" vertex="1">
          <mxGeometry x="143" y="1240" width="156" height="54" as="geometry" />
        </mxCell>
        <mxCell id="14" value="提示灯反馈识别身份" style="whiteSpace=wrap;strokeWidth=2;" parent="1" vertex="1">
          <mxGeometry x="119" y="1369" width="204" height="54" as="geometry" />
        </mxCell>
        <mxCell id="15" value="利用 OpenMV 的摄像头接口" style="curved=1;startArrow=none;endArrow=block;exitX=0.5;exitY=1;entryX=0.5;entryY=0;" parent="1" source="2" target="3" edge="1">
          <mxGeometry relative="1" as="geometry">
            <Array as="points" />
          </mxGeometry>
        </mxCell>
        <mxCell id="16" value="" style="curved=1;startArrow=none;endArrow=block;exitX=0.5;exitY=1;entryX=0.5;entryY=0;" parent="1" source="3" target="4" edge="1">
          <mxGeometry relative="1" as="geometry">
            <Array as="points" />
          </mxGeometry>
        </mxCell>
        <mxCell id="17" value="基于 Haar 特征级联分类器" style="curved=1;startArrow=none;endArrow=block;exitX=0.5;exitY=1;entryX=0.5;entryY=0;" parent="1" source="4" target="5" edge="1">
          <mxGeometry relative="1" as="geometry">
            <Array as="points" />
          </mxGeometry>
        </mxCell>
        <mxCell id="18" value="" style="curved=1;startArrow=none;endArrow=block;exitX=0.5;exitY=1;entryX=0.5;entryY=0;" parent="1" source="5" target="6" edge="1">
          <mxGeometry relative="1" as="geometry">
            <Array as="points" />
          </mxGeometry>
        </mxCell>
        <mxCell id="19" value="提取 LBP 特征" style="curved=1;startArrow=none;endArrow=block;exitX=0.5;exitY=1;entryX=0.5;entryY=0;" parent="1" source="6" target="7" edge="1">
          <mxGeometry relative="1" as="geometry">
            <Array as="points" />
          </mxGeometry>
        </mxCell>
        <mxCell id="20" value="与预存人脸库进行差异度计算" style="curved=1;startArrow=none;endArrow=block;exitX=0.5;exitY=1;entryX=0.5;entryY=-0.01;" parent="1" source="7" target="8" edge="1">
          <mxGeometry relative="1" as="geometry">
            <Array as="points" />
          </mxGeometry>
        </mxCell>
        <mxCell id="21" value="" style="curved=1;startArrow=none;endArrow=block;exitX=0.5;exitY=0.99;entryX=0.5;entryY=-0.01;" parent="1" source="8" target="9" edge="1">
          <mxGeometry relative="1" as="geometry">
            <Array as="points" />
          </mxGeometry>
        </mxCell>
        <mxCell id="22" value="通过差异度与阈值比较" style="curved=1;startArrow=none;endArrow=block;exitX=0.5;exitY=0.99;entryX=0.5;entryY=-0.01;" parent="1" source="9" target="10" edge="1">
          <mxGeometry relative="1" as="geometry">
            <Array as="points" />
          </mxGeometry>
        </mxCell>
        <mxCell id="23" value="差异度低于阈值" style="curved=1;startArrow=none;endArrow=block;exitX=0.27;exitY=0.99;entryX=0.5;entryY=-0.01;" parent="1" source="10" target="11" edge="1">
          <mxGeometry relative="1" as="geometry">
            <Array as="points">
              <mxPoint x="102" y="1098" />
            </Array>
          </mxGeometry>
        </mxCell>
        <mxCell id="24" value="差异度高于阈值" style="curved=1;startArrow=none;endArrow=block;exitX=0.73;exitY=0.99;entryX=0.5;entryY=-0.01;" parent="1" source="10" target="12" edge="1">
          <mxGeometry relative="1" as="geometry">
            <Array as="points">
              <mxPoint x="340" y="1098" />
            </Array>
          </mxGeometry>
        </mxCell>
        <mxCell id="25" value="" style="curved=1;startArrow=none;endArrow=block;exitX=0.5;exitY=0.99;entryX=0.1;entryY=-0.01;" parent="1" source="11" target="13" edge="1">
          <mxGeometry relative="1" as="geometry">
            <Array as="points">
              <mxPoint x="102" y="1215" />
            </Array>
          </mxGeometry>
        </mxCell>
        <mxCell id="26" value="" style="curved=1;startArrow=none;endArrow=block;exitX=0.5;exitY=0.99;entryX=0.9;entryY=-0.01;" parent="1" source="12" target="13" edge="1">
          <mxGeometry relative="1" as="geometry">
            <Array as="points">
              <mxPoint x="340" y="1215" />
            </Array>
          </mxGeometry>
        </mxCell>
        <mxCell id="27" value="输出识别结果" style="curved=1;startArrow=none;endArrow=block;exitX=0.5;exitY=0.99;entryX=0.5;entryY=-0.01;" parent="1" source="13" target="14" edge="1">
          <mxGeometry relative="1" as="geometry">
            <Array as="points" />
          </mxGeometry>
        </mxCell>
      </root>
    </mxGraphModel>
  </diagram>
</mxfile>
